<?xml version="1.0" encoding="utf-8"?>
<!-- Generator: Adobe Illustrator 22.1.0, SVG Export Plug-In . SVG Version: 6.00 Build 0)  -->
<svg version="1.1" id="Capa_1" xmlns="http://www.w3.org/2000/svg" xmlns:xlink="http://www.w3.org/1999/xlink" x="0px" y="0px"
	 viewBox="0 0 500 500" style="enable-background:new 0 0 500 500;" xml:space="preserve">
<path d="M214.2,235.8c1.7,0,2.7,0,3.7,0c34.8,0,69.6,0,104.4,0c4.7,0,9.1,0.8,12.8,3.9c4.5,3.9,6.3,10.2,4.3,15.9
	c-2.1,6.1-6.7,9.3-13,10.1c-1,0.1-2.1,0.1-3.1,0.1c-35.2,0-70.4,0-105.6,0c-0.9,0-1.9,0-3.5,0c1.4,1.5,2.3,2.5,3.3,3.5
	c9.6,9.6,19.2,19.2,28.8,28.9c5.7,5.7,6.9,11.6,3.8,18.3c-4.2,9-16.6,11.4-23.7,4.4c-19.9-19.8-39.7-39.7-59.6-59.5
	c-6.1-6.1-6.1-14.8,0-21c19.7-19.8,39.5-39.5,59.2-59.2c5.9-5.8,14.6-6,20.7-0.4c5.9,5.4,6.5,14.3,1.3,20.5
	c-2.1,2.6-4.6,4.9-6.9,7.3c-8.1,8.1-16.2,16.2-24.3,24.3C216.2,233.6,215.5,234.4,214.2,235.8z"/>
</svg>
