<?xml version="1.0" encoding="utf-8"?>
<!-- Generator: Adobe Illustrator 22.1.0, SVG Export Plug-In . SVG Version: 6.00 Build 0)  -->
<svg version="1.1" id="Capa_1" xmlns="http://www.w3.org/2000/svg" xmlns:xlink="http://www.w3.org/1999/xlink" x="0px" y="0px"
	 viewBox="0 0 500 500" style="enable-background:new 0 0 500 500;" xml:space="preserve">
<path d="M288.4,266.3c-1.6,0-2.5,0-3.4,0c-35.2,0-70.4,0-105.6-0.1c-2.7,0-5.5-0.5-7.9-1.4c-6.4-2.5-10-8.9-9-15.3
	c1.1-7.1,6.1-12.2,13.1-13c1.5-0.2,3-0.2,4.5-0.2c34.9,0,69.8,0,104.6,0c0.9,0,1.9,0,3.5,0c-1.3-1.4-2.1-2.4-3-3.3
	c-9.7-9.7-19.4-19.3-29-29c-6-6-6.9-13.1-2.8-19.8c4.7-7.6,16.2-9.3,22.5-3c20.1,19.9,40.1,40,60.1,60.1c6.1,6.1,5.7,14.8-0.7,21.2
	c-18.6,18.6-37.2,37.2-55.8,55.8c-1,1-2,2.1-3.1,3c-6.1,5.8-15.3,5.7-21.1-0.2c-5.8-5.9-5.9-15.2,0-21.1c9.9-10,19.9-20,29.8-29.9
	C286,268.9,287,267.8,288.4,266.3z"/>
</svg>
